<?xml version="1.0" encoding="utf-8"?>
<!-- Svg Vector Icons : http://www.onlinewebfonts.com/icon -->
<!DOCTYPE svg PUBLIC "-//W3C//DTD SVG 1.1//EN" "http://www.w3.org/Graphics/SVG/1.1/DTD/svg11.dtd">
<svg version="1.1" xmlns="http://www.w3.org/2000/svg" xmlns:xlink="http://www.w3.org/1999/xlink" x="0px" y="0px" viewBox="0 0 1000 1000" enable-background="new 0 0 1000 1000" xml:space="preserve">
<g><g transform="translate(0.000000,329.000000) scale(0.100000,-0.100000)"><path style="fill:#56ABE4" d="M2420.5,1382.5c-141.9-57.5-278.1-197.5-324.1-329.9c-17.3-49.9-38.4-163-44.1-249.3L2040.8,646l-366.3-5.8c-337.5-5.7-374-9.6-456.4-49.9C1103,532.9,987.9,417.8,930.4,302.7c-42.2-86.3-44.1-109.3-49.9-659.7l-5.8-567.7l-262.7-7.7c-247.4-5.7-266.6-9.6-335.6-57.5c-42.2-26.8-97.8-82.5-124.7-124.7l-51.8-72.9v-519.7v-517.8l53.7-80.5c28.8-44.1,88.2-103.6,130.4-132.3c74.8-49.9,95.9-53.7,335.6-59.4l257-7.7v-535c0-496.7,1.9-540.8,40.3-642.5c74.8-197.5,235.9-331.8,446.8-370.2c63.3-11.5,241.6-21.1,395.1-21.1h281.9l13.4-166.8c21.1-280,132.3-454.5,354.8-560c105.5-49.9,115.1-49.9,529.3-49.9s423.8,0,529.3,49.9c136.2,63.3,239.7,166.9,303,303l49.9,107.4l5.8,945.5l5.8,943.6H5000h1167.9l5.8-945.5l5.8-943.6l49.9-107.4c63.3-136.2,166.9-239.7,303-303c105.5-49.9,115.1-49.9,529.3-49.9s423.8,0,529.3,49.9c222.5,105.5,333.7,280,354.8,560l13.4,166.8h281.9c153.4,0,331.8,9.6,395.1,21.1c211,38.4,372.1,172.6,446.9,370.2c38.4,101.6,40.3,145.7,40.3,642.5v535l257,7.7c239.7,5.8,260.8,9.6,335.6,59.4c42.2,28.8,101.6,88.2,130.4,132.3l53.7,80.5v517.8v519.7l-51.8,72.9c-26.8,42.2-82.5,97.8-124.7,124.7c-69,47.9-88.2,51.8-335.6,57.5l-262.7,7.7l-5.7,567.7c-5.8,550.4-7.7,573.4-49.9,659.7c-57.5,115.1-172.6,230.1-287.7,287.7c-82.5,40.3-118.9,44.1-456.4,49.9l-366.3,5.8l-11.5,157.3c-15.3,220.6-57.5,327.9-174.5,446.9c-159.2,161.1-235.9,180.3-711.5,180.3c-347.1,0-402.7-3.8-496.7-38.4c-203.3-76.7-339.4-247.4-375.9-473.7c-11.5-61.4-19.2-502.5-19.2-978.1v-868.8H5000H3830.1v868.8c0,475.6-7.7,916.7-19.2,978.1c-36.4,226.3-172.6,397-375.9,473.7c-94,34.5-149.6,38.4-502.5,38.4C2556.7,1430.4,2529.9,1426.6,2420.5,1382.5z M3337.3,1002.7c30.7-19.2,61.4-55.6,71-82.5c11.5-30.7,19.2-1037.5,19.2-2637c0-2813.4,5.7-2667.7-105.5-2717.5c-69-30.7-698.1-30.7-767.1,0c-111.2,49.9-105.5-97.8-105.5,2734.8c0,2604.4,0,2606.3,40.3,2658.1c57.5,74.8,130.4,86.3,477.5,82.5C3237.5,1037.3,3293.1,1031.5,3337.3,1002.7z M7401.1,1027.7c38.4-11.5,88.2-42.2,111.2-71c38.4-49.9,38.4-59.4,38.4-2656.2c0-2832.6,5.8-2684.9-105.5-2734.8c-32.6-15.3-166.8-23-385.5-23c-370.1,0-425.8,13.4-466,109.3c-15.3,40.3-21.1,724.9-17.2,2663.8c5.7,2544.9,5.7,2612,42.2,2652.3c21.1,23,63.3,47.9,95.9,57.5C6797,1050.7,7314.8,1050.7,7401.1,1027.7z M2046.6-1705.2V-3671h-324.1c-366.3,0-404.7,13.4-443,149.6c-19.2,78.6-26.9,3505.8-7.7,3607.4c13.4,69,88.2,149.6,147.7,161.1c23,3.8,174.5,9.6,335.6,11.5l291.5,1.9V-1705.2z M8636.2,224.1c97.8-65.2,94,17.3,99.7-1862.2c1.9-964.7,0-1793.1-5.8-1839.2c-9.6-57.5-30.7-103.6-67.1-140l-53.7-53.7h-327.9h-327.9v1967.7V264.4l322.2-7.7C8509.6,252.9,8607.4,243.3,8636.2,224.1z M876.7-1705.2v-395.1l-195.6,5.8l-197.5,5.7l-5.7,364.4c-1.9,199.5,0,374,3.8,387.4c7.7,17.3,63.3,24.9,203.3,24.9h191.8V-1705.2z M6169.9-1705.2v-393.2H5000H3830.1v393.2v393.1H5000h1169.9V-1705.2z M9516.4-1705.2v-383.6l-195.6-5.7l-197.5-5.8v395.1v395.1l197.5-5.8l195.6-5.8V-1705.2z"/></g></g>
</svg>
